<?xml version="1.0" standalone="no"?>
<!DOCTYPE svg PUBLIC "-//W3C//DTD SVG 20010904//EN"
 "http://www.w3.org/TR/2001/REC-SVG-20010904/DTD/svg10.dtd">
<svg version="1.0" xmlns="http://www.w3.org/2000/svg"
 width="500.000000pt" height="500.000000pt" viewBox="0 0 500.000000 500.000000"
 preserveAspectRatio="xMidYMid meet">

<g transform="translate(0.000000,500.000000) scale(0.100000,-0.100000)"
fill="#000000" stroke="none">
<path d="M1528 3490 c-45 -14 -83 -41 -108 -78 l-25 -36 0 -871 0 -871 25 -37
c13 -20 43 -46 65 -59 39 -23 46 -23 425 -28 212 -3 597 -3 855 0 528 6 503 2
569 83 l31 39 3 322 3 322 27 16 c27 16 27 16 57 -28 17 -24 35 -42 40 -41 13
4 114 269 107 281 -2 5 -55 5 -118 2 l-114 -7 0 423 c0 389 -2 426 -19 463
-22 50 -69 91 -119 105 -44 12 -1663 13 -1704 0z m1666 -134 c21 -16 44 -43
51 -60 9 -23 13 -149 16 -486 l4 -455 -425 -302 c-234 -166 -428 -303 -432
-303 -5 0 -8 117 -8 260 0 204 -3 260 -13 260 -7 0 -210 -107 -452 -239 -242
-131 -440 -238 -440 -237 0 0 2 334 5 742 l5 740 25 37 c13 19 40 45 60 56 35
21 44 21 801 18 l766 -2 37 -29z m76 -1410 c0 -255 -5 -295 -43 -315 -16 -8
-125 -11 -394 -9 l-372 3 397 282 c218 156 400 283 405 283 4 0 7 -110 7 -244z
m-1000 -106 l0 -220 -363 0 c-298 0 -367 3 -383 14 -10 8 -17 17 -14 19 8 9
745 406 753 407 4 0 7 -99 7 -220z"/>
<path d="M2790 2649 c0 -445 3 -559 13 -553 6 5 65 46 130 92 l117 84 0 469 0
469 -130 0 -130 0 0 -561z"/>
<path d="M2060 2615 c0 -245 3 -445 6 -445 3 0 62 30 130 68 l124 67 0 378 0
377 -130 0 -130 0 0 -445z"/>
<path d="M1700 2394 l0 -425 93 50 c50 27 111 60 134 73 l43 23 0 353 0 352
-135 0 -135 0 0 -426z"/>
<path d="M2410 2484 c0 -150 1 -157 23 -174 21 -18 22 -24 25 -234 2 -119 6
-216 8 -216 3 0 50 32 105 71 l99 71 0 319 0 319 -130 0 -130 0 0 -156z"/>
</g>
</svg>
